<svg xmlns="http://www.w3.org/2000/svg" xmlns:xlink="http://www.w3.org/1999/xlink" width="500" zoomAndPan="magnify" viewBox="0 0 375 374.999991" height="500" preserveAspectRatio="xMidYMid meet" version="1.0"><defs><g/><clipPath id="c3333c3f57"><path d="M 66.496094 29.136719 L 315 29.136719 L 315 270 L 66.496094 270 Z M 66.496094 29.136719 " clip-rule="nonzero"/></clipPath><clipPath id="e0b5051cc4"><path d="M 87 116 L 321.496094 116 L 321.496094 285.636719 L 87 285.636719 Z M 87 116 " clip-rule="nonzero"/></clipPath></defs><rect x="-37.5" width="450" fill="#ffffff" y="-37.499999" height="449.999989" fill-opacity="1"/><rect x="-37.5" width="450" fill="#ffffff" y="-37.499999" height="449.999989" fill-opacity="1"/><rect x="-37.5" width="450" fill="#ffffff" y="-37.499999" height="449.999989" fill-opacity="1"/><path fill="#1848a0" d="M 162.183594 242.847656 L 192.585938 223.460938 L 192.585938 109.046875 L 162.183594 131.808594 L 162.183594 242.847656 " fill-opacity="1" fill-rule="nonzero"/><path fill="#1c98ed" d="M 113.851562 222.445312 L 144.253906 247.695312 L 144.253906 135.699219 L 113.851562 159.046875 L 113.851562 222.445312 " fill-opacity="1" fill-rule="nonzero"/><path fill="#0c0c0c" d="M 210.515625 103.792969 L 210.515625 204.722656 L 240.914062 180.742188 L 240.914062 77.335938 L 210.515625 103.792969 " fill-opacity="1" fill-rule="nonzero"/><g clip-path="url(#c3333c3f57)"><path fill="#222222" d="M 118.429688 243.03125 C 94.839844 222.019531 79.984375 191.4375 79.984375 157.386719 C 79.984375 94.015625 131.441406 42.644531 194.914062 42.644531 C 245.050781 42.644531 287.683594 74.6875 303.394531 119.382812 L 314.523438 110.601562 C 295.800781 62.929688 249.304688 29.171875 194.914062 29.171875 C 123.988281 29.171875 66.488281 86.574219 66.488281 157.386719 C 66.488281 205.382812 92.902344 247.210938 132.003906 269.191406 L 118.429688 243.03125 " fill-opacity="1" fill-rule="nonzero"/></g><g clip-path="url(#e0b5051cc4)"><path fill="#3870c2" d="M 321.480469 116.414062 L 148.78125 252.640625 L 87.855469 175.660156 L 144.914062 285.601562 L 321.480469 116.414062 " fill-opacity="1" fill-rule="nonzero"/></g><g fill="#000000" fill-opacity="1"><g transform="translate(54.282372, 317.019793)"><g><path d="M 22.4375 0 L 15.15625 0 L 15.15625 -0.5 C 16.175781 -0.5625 16.828125 -0.742188 17.109375 -1.046875 C 17.390625 -1.359375 17.53125 -2.050781 17.53125 -3.125 L 17.53125 -14.890625 L 10.875 0 L 10.5 0 L 3.984375 -14.296875 L 3.984375 -3.828125 C 3.984375 -2.503906 4.132812 -1.628906 4.4375 -1.203125 C 4.75 -0.785156 5.410156 -0.550781 6.421875 -0.5 L 6.421875 0 L 0.3125 0 L 0.3125 -0.5 C 1.382812 -0.5625 2.070312 -0.796875 2.375 -1.203125 C 2.675781 -1.609375 2.828125 -2.484375 2.828125 -3.828125 L 2.828125 -14.375 C 2.828125 -15.332031 2.679688 -15.941406 2.390625 -16.203125 C 2.109375 -16.472656 1.429688 -16.644531 0.359375 -16.71875 L 0.359375 -17.21875 L 5.515625 -17.21875 L 11.515625 -4.078125 L 17.265625 -17.21875 L 22.4375 -17.21875 L 22.4375 -16.71875 C 21.46875 -16.632812 20.847656 -16.453125 20.578125 -16.171875 C 20.304688 -15.890625 20.171875 -15.289062 20.171875 -14.375 L 20.171875 -2.828125 C 20.171875 -1.910156 20.3125 -1.304688 20.59375 -1.015625 C 20.875 -0.734375 21.488281 -0.5625 22.4375 -0.5 Z M 22.4375 0 "/></g></g></g><g fill="#000000" fill-opacity="1"><g transform="translate(77.389445, 317.019793)"><g><path d="M 8.1875 0 L 0.46875 0 L 0.46875 -0.5 C 1.5625 -0.53125 2.253906 -0.679688 2.546875 -0.953125 C 2.835938 -1.234375 2.984375 -1.859375 2.984375 -2.828125 L 2.984375 -14.375 C 2.984375 -15.332031 2.835938 -15.941406 2.546875 -16.203125 C 2.265625 -16.472656 1.570312 -16.644531 0.46875 -16.71875 L 0.46875 -17.21875 L 8.1875 -17.21875 L 8.1875 -16.71875 C 7.09375 -16.664062 6.394531 -16.5 6.09375 -16.21875 C 5.789062 -15.945312 5.640625 -15.332031 5.640625 -14.375 L 5.640625 -2.828125 C 5.640625 -1.878906 5.796875 -1.257812 6.109375 -0.96875 C 6.421875 -0.6875 7.113281 -0.53125 8.1875 -0.5 Z M 8.1875 0 "/></g></g></g><g fill="#000000" fill-opacity="1"><g transform="translate(86.044851, 317.019793)"><g><path d="M 18.375 -16.71875 C 17.550781 -16.632812 16.984375 -16.476562 16.671875 -16.25 C 16.160156 -15.90625 15.90625 -14.953125 15.90625 -13.390625 L 15.90625 0.28125 L 15.46875 0.28125 L 3.984375 -14.015625 L 3.984375 -3.828125 C 3.984375 -2.503906 4.132812 -1.628906 4.4375 -1.203125 C 4.75 -0.785156 5.410156 -0.550781 6.421875 -0.5 L 6.421875 0 L 0.3125 0 L 0.3125 -0.5 C 1.382812 -0.5625 2.070312 -0.796875 2.375 -1.203125 C 2.675781 -1.609375 2.828125 -2.484375 2.828125 -3.828125 L 2.828125 -15.28125 C 2.304688 -15.894531 1.894531 -16.285156 1.59375 -16.453125 C 1.289062 -16.628906 0.863281 -16.71875 0.3125 -16.71875 L 0.3125 -17.21875 L 4.765625 -17.21875 L 14.765625 -4.625 L 14.765625 -13.390625 C 14.765625 -14.984375 14.515625 -15.953125 14.015625 -16.296875 C 13.648438 -16.503906 13.066406 -16.644531 12.265625 -16.71875 L 12.265625 -17.21875 L 18.375 -17.21875 Z M 18.375 -16.71875 "/></g></g></g><g fill="#000000" fill-opacity="1"><g transform="translate(104.811226, 317.019793)"><g><path d="M 17.8125 -8.6875 C 17.8125 -6.050781 16.925781 -3.925781 15.15625 -2.3125 C 14.363281 -1.582031 13.316406 -1.015625 12.015625 -0.609375 C 10.710938 -0.203125 9.304688 0 7.796875 0 L 0.421875 0 L 0.421875 -0.5 C 1.398438 -0.5625 2.023438 -0.734375 2.296875 -1.015625 C 2.566406 -1.296875 2.703125 -1.898438 2.703125 -2.828125 L 2.703125 -14.375 C 2.703125 -15.332031 2.578125 -15.941406 2.328125 -16.203125 C 2.078125 -16.460938 1.441406 -16.632812 0.421875 -16.71875 L 0.421875 -17.21875 L 7.4375 -17.21875 C 11.09375 -17.21875 13.8125 -16.304688 15.59375 -14.484375 C 17.070312 -13.003906 17.8125 -11.070312 17.8125 -8.6875 Z M 14.96875 -8.5 C 14.96875 -11.375 13.9375 -13.523438 11.875 -14.953125 C 10.644531 -15.816406 8.921875 -16.25 6.703125 -16.25 C 6.171875 -16.25 5.8125 -16.175781 5.625 -16.03125 C 5.445312 -15.894531 5.359375 -15.628906 5.359375 -15.234375 L 5.359375 -2.03125 C 5.359375 -1.613281 5.453125 -1.332031 5.640625 -1.1875 C 5.828125 -1.039062 6.179688 -0.96875 6.703125 -0.96875 C 8.859375 -0.96875 10.554688 -1.320312 11.796875 -2.03125 C 13.910156 -3.257812 14.96875 -5.414062 14.96875 -8.5 Z M 14.96875 -8.5 "/></g></g></g><g fill="#000000" fill-opacity="1"><g transform="translate(123.577601, 317.019793)"><g><path d="M 18.25 0 L 11.03125 0 L 11.03125 -0.5 C 12.03125 -0.5625 12.660156 -0.738281 12.921875 -1.03125 C 13.179688 -1.332031 13.3125 -2.03125 13.3125 -3.125 L 13.3125 -8.1875 L 5.4375 -8.1875 L 5.4375 -2.828125 C 5.4375 -1.910156 5.570312 -1.3125 5.84375 -1.03125 C 6.125 -0.757812 6.75 -0.582031 7.71875 -0.5 L 7.71875 0 L 0.5 0 L 0.5 -0.5 C 1.5 -0.5625 2.128906 -0.738281 2.390625 -1.03125 C 2.648438 -1.332031 2.78125 -2.03125 2.78125 -3.125 L 2.78125 -14.375 C 2.78125 -15.3125 2.648438 -15.914062 2.390625 -16.1875 C 2.128906 -16.457031 1.5 -16.632812 0.5 -16.71875 L 0.5 -17.21875 L 7.71875 -17.21875 L 7.71875 -16.71875 C 6.71875 -16.632812 6.085938 -16.457031 5.828125 -16.1875 C 5.566406 -15.914062 5.4375 -15.3125 5.4375 -14.375 L 5.4375 -9.328125 L 13.3125 -9.328125 L 13.3125 -14.375 C 13.3125 -15.3125 13.179688 -15.914062 12.921875 -16.1875 C 12.660156 -16.457031 12.03125 -16.632812 11.03125 -16.71875 L 11.03125 -17.21875 L 18.25 -17.21875 L 18.25 -16.71875 C 17.25 -16.632812 16.617188 -16.457031 16.359375 -16.1875 C 16.097656 -15.914062 15.96875 -15.3125 15.96875 -14.375 L 15.96875 -2.828125 C 15.96875 -1.910156 16.101562 -1.3125 16.375 -1.03125 C 16.65625 -0.757812 17.28125 -0.582031 18.25 -0.5 Z M 18.25 0 "/></g></g></g><g fill="#000000" fill-opacity="1"><g transform="translate(142.343976, 317.019793)"><g><path d="M 18.328125 -16.71875 C 17.253906 -16.582031 16.578125 -16.320312 16.296875 -15.9375 C 16.023438 -15.550781 15.890625 -14.703125 15.890625 -13.390625 L 15.890625 -6.609375 C 15.890625 -4.753906 15.601562 -3.320312 15.03125 -2.3125 C 14.007812 -0.53125 12.078125 0.359375 9.234375 0.359375 C 7.015625 0.359375 5.367188 -0.179688 4.296875 -1.265625 C 3.234375 -2.347656 2.703125 -4.015625 2.703125 -6.265625 L 2.703125 -14.375 C 2.703125 -15.332031 2.566406 -15.941406 2.296875 -16.203125 C 2.023438 -16.460938 1.378906 -16.632812 0.359375 -16.71875 L 0.359375 -17.21875 L 7.71875 -17.21875 L 7.71875 -16.71875 C 6.675781 -16.632812 6.019531 -16.457031 5.75 -16.1875 C 5.488281 -15.914062 5.359375 -15.3125 5.359375 -14.375 L 5.359375 -6.0625 C 5.359375 -4.53125 5.570312 -3.382812 6 -2.625 C 6.71875 -1.394531 7.992188 -0.78125 9.828125 -0.78125 C 10.796875 -0.78125 11.671875 -0.960938 12.453125 -1.328125 C 13.234375 -1.703125 13.796875 -2.203125 14.140625 -2.828125 C 14.535156 -3.578125 14.734375 -4.757812 14.734375 -6.375 L 14.734375 -13.390625 C 14.734375 -14.691406 14.578125 -15.550781 14.265625 -15.96875 C 13.960938 -16.394531 13.304688 -16.644531 12.296875 -16.71875 L 12.296875 -17.21875 L 18.328125 -17.21875 Z M 18.328125 -16.71875 "/></g></g></g><g fill="#000000" fill-opacity="1"><g transform="translate(161.110351, 317.019793)"><g><path d="M 15.421875 -4.6875 C 15.421875 -3.382812 14.9375 -2.300781 13.96875 -1.4375 C 12.925781 -0.476562 11.3125 0 9.125 0 L 0.4375 0 L 0.4375 -0.5 C 1.507812 -0.53125 2.191406 -0.679688 2.484375 -0.953125 C 2.785156 -1.234375 2.9375 -1.859375 2.9375 -2.828125 L 2.9375 -14.375 C 2.9375 -15.332031 2.789062 -15.941406 2.5 -16.203125 C 2.21875 -16.472656 1.53125 -16.644531 0.4375 -16.71875 L 0.4375 -17.21875 L 7.71875 -17.21875 C 12.257812 -17.21875 14.53125 -15.742188 14.53125 -12.796875 C 14.53125 -11.671875 14.1875 -10.800781 13.5 -10.1875 C 12.9375 -9.707031 12.09375 -9.328125 10.96875 -9.046875 C 11.820312 -8.835938 12.46875 -8.632812 12.90625 -8.4375 C 13.351562 -8.238281 13.765625 -7.96875 14.140625 -7.625 C 14.992188 -6.820312 15.421875 -5.84375 15.421875 -4.6875 Z M 12.421875 -4.65625 C 12.421875 -6.25 11.695312 -7.347656 10.25 -7.953125 C 9.414062 -8.296875 7.863281 -8.46875 5.59375 -8.46875 L 5.59375 -2.03125 C 5.59375 -1.613281 5.703125 -1.332031 5.921875 -1.1875 C 6.148438 -1.039062 6.585938 -0.96875 7.234375 -0.96875 C 8.835938 -0.96875 10.039062 -1.191406 10.84375 -1.640625 C 11.894531 -2.242188 12.421875 -3.25 12.421875 -4.65625 Z M 11.875 -12.6875 C 11.875 -13.851562 11.484375 -14.738281 10.703125 -15.34375 C 9.929688 -15.945312 8.800781 -16.25 7.3125 -16.25 L 6.15625 -16.25 C 5.78125 -16.25 5.59375 -15.988281 5.59375 -15.46875 L 5.59375 -9.515625 L 8.0625 -9.515625 C 9.269531 -9.515625 10.207031 -9.785156 10.875 -10.328125 C 11.539062 -10.878906 11.875 -11.664062 11.875 -12.6875 Z M 11.875 -12.6875 "/></g></g></g><g fill="#000000" fill-opacity="1"><g transform="translate(178.447154, 317.019793)"><g/></g></g><g fill="#000000" fill-opacity="1"><g transform="translate(184.945212, 317.019793)"><g><path d="M 15.421875 -4.6875 C 15.421875 -3.382812 14.9375 -2.300781 13.96875 -1.4375 C 12.925781 -0.476562 11.3125 0 9.125 0 L 0.4375 0 L 0.4375 -0.5 C 1.507812 -0.53125 2.191406 -0.679688 2.484375 -0.953125 C 2.785156 -1.234375 2.9375 -1.859375 2.9375 -2.828125 L 2.9375 -14.375 C 2.9375 -15.332031 2.789062 -15.941406 2.5 -16.203125 C 2.21875 -16.472656 1.53125 -16.644531 0.4375 -16.71875 L 0.4375 -17.21875 L 7.71875 -17.21875 C 12.257812 -17.21875 14.53125 -15.742188 14.53125 -12.796875 C 14.53125 -11.671875 14.1875 -10.800781 13.5 -10.1875 C 12.9375 -9.707031 12.09375 -9.328125 10.96875 -9.046875 C 11.820312 -8.835938 12.46875 -8.632812 12.90625 -8.4375 C 13.351562 -8.238281 13.765625 -7.96875 14.140625 -7.625 C 14.992188 -6.820312 15.421875 -5.84375 15.421875 -4.6875 Z M 12.421875 -4.65625 C 12.421875 -6.25 11.695312 -7.347656 10.25 -7.953125 C 9.414062 -8.296875 7.863281 -8.46875 5.59375 -8.46875 L 5.59375 -2.03125 C 5.59375 -1.613281 5.703125 -1.332031 5.921875 -1.1875 C 6.148438 -1.039062 6.585938 -0.96875 7.234375 -0.96875 C 8.835938 -0.96875 10.039062 -1.191406 10.84375 -1.640625 C 11.894531 -2.242188 12.421875 -3.25 12.421875 -4.65625 Z M 11.875 -12.6875 C 11.875 -13.851562 11.484375 -14.738281 10.703125 -15.34375 C 9.929688 -15.945312 8.800781 -16.25 7.3125 -16.25 L 6.15625 -16.25 C 5.78125 -16.25 5.59375 -15.988281 5.59375 -15.46875 L 5.59375 -9.515625 L 8.0625 -9.515625 C 9.269531 -9.515625 10.207031 -9.785156 10.875 -10.328125 C 11.539062 -10.878906 11.875 -11.664062 11.875 -12.6875 Z M 11.875 -12.6875 "/></g></g></g><g fill="#000000" fill-opacity="1"><g transform="translate(202.282014, 317.019793)"><g><path d="M 17.140625 0 L 12.953125 0 L 6.765625 -8.015625 L 5.296875 -7.953125 L 5.296875 -2.828125 C 5.296875 -1.898438 5.4375 -1.296875 5.71875 -1.015625 C 6 -0.734375 6.640625 -0.5625 7.640625 -0.5 L 7.640625 0 L 0.4375 0 L 0.4375 -0.5 C 1.40625 -0.5625 2.015625 -0.742188 2.265625 -1.046875 C 2.523438 -1.359375 2.65625 -2.050781 2.65625 -3.125 L 2.65625 -14.375 C 2.65625 -15.289062 2.523438 -15.882812 2.265625 -16.15625 C 2.015625 -16.425781 1.40625 -16.613281 0.4375 -16.71875 L 0.4375 -17.21875 L 7.625 -17.21875 C 8.832031 -17.21875 9.9375 -17.0625 10.9375 -16.75 C 11.945312 -16.4375 12.703125 -16.007812 13.203125 -15.46875 C 13.878906 -14.707031 14.21875 -13.765625 14.21875 -12.640625 C 14.21875 -11.359375 13.773438 -10.359375 12.890625 -9.640625 C 12.148438 -9.035156 11.023438 -8.585938 9.515625 -8.296875 L 14.875 -1.71875 C 15.238281 -1.28125 15.578125 -0.972656 15.890625 -0.796875 C 16.210938 -0.628906 16.628906 -0.53125 17.140625 -0.5 Z M 11.390625 -12.6875 C 11.390625 -13.90625 11.003906 -14.800781 10.234375 -15.375 C 9.460938 -15.957031 8.257812 -16.25 6.625 -16.25 C 6.101562 -16.25 5.75 -16.179688 5.5625 -16.046875 C 5.382812 -15.921875 5.296875 -15.675781 5.296875 -15.3125 L 5.296875 -8.921875 C 6.566406 -8.953125 7.503906 -9.023438 8.109375 -9.140625 C 8.710938 -9.253906 9.3125 -9.472656 9.90625 -9.796875 C 10.894531 -10.316406 11.390625 -11.28125 11.390625 -12.6875 Z M 11.390625 -12.6875 "/></g></g></g><g fill="#000000" fill-opacity="1"><g transform="translate(219.618816, 317.019793)"><g><path d="M 17.890625 -8.5 C 17.890625 -5.882812 17.085938 -3.753906 15.484375 -2.109375 C 13.878906 -0.460938 11.796875 0.359375 9.234375 0.359375 C 8.085938 0.359375 6.972656 0.125 5.890625 -0.34375 C 4.804688 -0.820312 3.882812 -1.46875 3.125 -2.28125 C 2.425781 -3.03125 1.878906 -3.960938 1.484375 -5.078125 C 1.085938 -6.203125 0.890625 -7.378906 0.890625 -8.609375 C 0.890625 -11.222656 1.6875 -13.367188 3.28125 -15.046875 C 4.875 -16.734375 6.910156 -17.578125 9.390625 -17.578125 C 11.929688 -17.578125 14.035156 -16.664062 15.703125 -14.84375 C 17.160156 -13.25 17.890625 -11.132812 17.890625 -8.5 Z M 14.921875 -8.53125 C 14.921875 -11.738281 14.1875 -14.007812 12.71875 -15.34375 C 11.75 -16.207031 10.640625 -16.640625 9.390625 -16.640625 C 7.929688 -16.640625 6.691406 -16.078125 5.671875 -14.953125 C 5.117188 -14.347656 4.675781 -13.457031 4.34375 -12.28125 C 4.007812 -11.113281 3.84375 -9.867188 3.84375 -8.546875 C 3.84375 -7.109375 4.039062 -5.78125 4.4375 -4.5625 C 4.84375 -3.34375 5.382812 -2.4375 6.0625 -1.84375 C 7.007812 -1 8.097656 -0.578125 9.328125 -0.578125 C 10.710938 -0.578125 11.867188 -1.035156 12.796875 -1.953125 C 13.421875 -2.554688 13.84375 -3.1875 14.0625 -3.84375 C 14.632812 -5.332031 14.921875 -6.894531 14.921875 -8.53125 Z M 14.921875 -8.53125 "/></g></g></g><g fill="#000000" fill-opacity="1"><g transform="translate(238.385191, 317.019793)"><g><path d="M 15.421875 -12.796875 L 14.796875 -12.796875 C 14.503906 -14.234375 14.109375 -15.144531 13.609375 -15.53125 C 13.117188 -15.925781 12.132812 -16.125 10.65625 -16.125 L 9.25 -16.125 L 9.25 -2.828125 C 9.25 -1.878906 9.394531 -1.265625 9.6875 -0.984375 C 9.988281 -0.710938 10.675781 -0.550781 11.75 -0.5 L 11.75 0 L 4.15625 0 L 4.15625 -0.5 C 5.226562 -0.5625 5.90625 -0.734375 6.1875 -1.015625 C 6.46875 -1.304688 6.609375 -2.007812 6.609375 -3.125 L 6.609375 -16.125 L 5.203125 -16.125 C 3.742188 -16.125 2.765625 -15.921875 2.265625 -15.515625 C 1.773438 -15.117188 1.375 -14.210938 1.0625 -12.796875 L 0.4375 -12.796875 L 0.59375 -17.21875 L 15.265625 -17.21875 Z M 15.421875 -12.796875 "/></g></g></g><g fill="#000000" fill-opacity="1"><g transform="translate(254.266443, 317.019793)"><g><path d="M 18.25 0 L 11.03125 0 L 11.03125 -0.5 C 12.03125 -0.5625 12.660156 -0.738281 12.921875 -1.03125 C 13.179688 -1.332031 13.3125 -2.03125 13.3125 -3.125 L 13.3125 -8.1875 L 5.4375 -8.1875 L 5.4375 -2.828125 C 5.4375 -1.910156 5.570312 -1.3125 5.84375 -1.03125 C 6.125 -0.757812 6.75 -0.582031 7.71875 -0.5 L 7.71875 0 L 0.5 0 L 0.5 -0.5 C 1.5 -0.5625 2.128906 -0.738281 2.390625 -1.03125 C 2.648438 -1.332031 2.78125 -2.03125 2.78125 -3.125 L 2.78125 -14.375 C 2.78125 -15.3125 2.648438 -15.914062 2.390625 -16.1875 C 2.128906 -16.457031 1.5 -16.632812 0.5 -16.71875 L 0.5 -17.21875 L 7.71875 -17.21875 L 7.71875 -16.71875 C 6.71875 -16.632812 6.085938 -16.457031 5.828125 -16.1875 C 5.566406 -15.914062 5.4375 -15.3125 5.4375 -14.375 L 5.4375 -9.328125 L 13.3125 -9.328125 L 13.3125 -14.375 C 13.3125 -15.3125 13.179688 -15.914062 12.921875 -16.1875 C 12.660156 -16.457031 12.03125 -16.632812 11.03125 -16.71875 L 11.03125 -17.21875 L 18.25 -17.21875 L 18.25 -16.71875 C 17.25 -16.632812 16.617188 -16.457031 16.359375 -16.1875 C 16.097656 -15.914062 15.96875 -15.3125 15.96875 -14.375 L 15.96875 -2.828125 C 15.96875 -1.910156 16.101562 -1.3125 16.375 -1.03125 C 16.65625 -0.757812 17.28125 -0.582031 18.25 -0.5 Z M 18.25 0 "/></g></g></g><g fill="#000000" fill-opacity="1"><g transform="translate(273.03283, 317.019793)"><g><path d="M 15.515625 -4.390625 L 14.359375 0 L 0.3125 0 L 0.3125 -0.5 C 1.257812 -0.5625 1.875 -0.734375 2.15625 -1.015625 C 2.4375 -1.304688 2.578125 -1.910156 2.578125 -2.828125 L 2.578125 -14.375 C 2.578125 -15.289062 2.441406 -15.890625 2.171875 -16.171875 C 1.898438 -16.453125 1.28125 -16.632812 0.3125 -16.71875 L 0.3125 -17.21875 L 14.125 -17.21875 L 14.203125 -13.5 L 13.546875 -13.5 C 13.316406 -14.65625 12.96875 -15.394531 12.5 -15.71875 C 12.03125 -16.050781 11.0625 -16.21875 9.59375 -16.21875 L 6.078125 -16.21875 C 5.734375 -16.21875 5.503906 -16.160156 5.390625 -16.046875 C 5.273438 -15.941406 5.21875 -15.707031 5.21875 -15.34375 L 5.21875 -9.5625 L 9.234375 -9.5625 C 10.285156 -9.5625 10.976562 -9.707031 11.3125 -10 C 11.65625 -10.300781 11.914062 -10.976562 12.09375 -12.03125 L 12.6875 -12.03125 L 12.6875 -6 L 12.09375 -6 C 11.914062 -7.082031 11.660156 -7.769531 11.328125 -8.0625 C 11.003906 -8.351562 10.304688 -8.5 9.234375 -8.5 L 5.21875 -8.5 L 5.21875 -2.078125 C 5.21875 -1.609375 5.289062 -1.332031 5.4375 -1.25 C 5.675781 -1.0625 6.515625 -0.96875 7.953125 -0.96875 L 8.65625 -0.96875 C 10.507812 -0.96875 11.832031 -1.1875 12.625 -1.625 C 13.425781 -2.0625 14.148438 -2.984375 14.796875 -4.390625 Z M 15.515625 -4.390625 "/></g></g></g><g fill="#000000" fill-opacity="1"><g transform="translate(288.91407, 317.019793)"><g><path d="M 17.140625 0 L 12.953125 0 L 6.765625 -8.015625 L 5.296875 -7.953125 L 5.296875 -2.828125 C 5.296875 -1.898438 5.4375 -1.296875 5.71875 -1.015625 C 6 -0.734375 6.640625 -0.5625 7.640625 -0.5 L 7.640625 0 L 0.4375 0 L 0.4375 -0.5 C 1.40625 -0.5625 2.015625 -0.742188 2.265625 -1.046875 C 2.523438 -1.359375 2.65625 -2.050781 2.65625 -3.125 L 2.65625 -14.375 C 2.65625 -15.289062 2.523438 -15.882812 2.265625 -16.15625 C 2.015625 -16.425781 1.40625 -16.613281 0.4375 -16.71875 L 0.4375 -17.21875 L 7.625 -17.21875 C 8.832031 -17.21875 9.9375 -17.0625 10.9375 -16.75 C 11.945312 -16.4375 12.703125 -16.007812 13.203125 -15.46875 C 13.878906 -14.707031 14.21875 -13.765625 14.21875 -12.640625 C 14.21875 -11.359375 13.773438 -10.359375 12.890625 -9.640625 C 12.148438 -9.035156 11.023438 -8.585938 9.515625 -8.296875 L 14.875 -1.71875 C 15.238281 -1.28125 15.578125 -0.972656 15.890625 -0.796875 C 16.210938 -0.628906 16.628906 -0.53125 17.140625 -0.5 Z M 11.390625 -12.6875 C 11.390625 -13.90625 11.003906 -14.800781 10.234375 -15.375 C 9.460938 -15.957031 8.257812 -16.25 6.625 -16.25 C 6.101562 -16.25 5.75 -16.179688 5.5625 -16.046875 C 5.382812 -15.921875 5.296875 -15.675781 5.296875 -15.3125 L 5.296875 -8.921875 C 6.566406 -8.953125 7.503906 -9.023438 8.109375 -9.140625 C 8.710938 -9.253906 9.3125 -9.472656 9.90625 -9.796875 C 10.894531 -10.316406 11.390625 -11.28125 11.390625 -12.6875 Z M 11.390625 -12.6875 "/></g></g></g><g fill="#000000" fill-opacity="1"><g transform="translate(306.250861, 317.019793)"><g><path d="M 12.765625 -4.375 C 12.765625 -3.03125 12.253906 -1.90625 11.234375 -1 C 10.222656 -0.09375 8.96875 0.359375 7.46875 0.359375 C 6.425781 0.359375 5.398438 0.160156 4.390625 -0.234375 C 3.867188 -0.421875 3.460938 -0.515625 3.171875 -0.515625 C 2.984375 -0.515625 2.816406 -0.429688 2.671875 -0.265625 C 2.535156 -0.109375 2.457031 0.09375 2.4375 0.34375 L 1.875 0.34375 L 1.09375 -5.171875 L 1.6875 -5.171875 C 2.34375 -3.578125 3.09375 -2.410156 3.9375 -1.671875 C 4.78125 -0.941406 5.78125 -0.578125 6.9375 -0.578125 C 7.894531 -0.578125 8.664062 -0.84375 9.25 -1.375 C 9.84375 -1.914062 10.140625 -2.617188 10.140625 -3.484375 C 10.140625 -4.128906 10.019531 -4.640625 9.78125 -5.015625 C 9.132812 -5.984375 7.84375 -7 5.90625 -8.0625 C 4.445312 -8.820312 3.40625 -9.59375 2.78125 -10.375 C 2.15625 -11.15625 1.84375 -12.066406 1.84375 -13.109375 C 1.84375 -14.523438 2.347656 -15.648438 3.359375 -16.484375 C 4.253906 -17.210938 5.234375 -17.578125 6.296875 -17.578125 C 7.160156 -17.578125 8.09375 -17.382812 9.09375 -17 C 9.5625 -16.789062 9.945312 -16.6875 10.25 -16.6875 C 10.695312 -16.6875 10.972656 -16.984375 11.078125 -17.578125 L 11.625 -17.578125 L 12.1875 -12.03125 L 11.546875 -12.03125 C 11.203125 -13.332031 10.671875 -14.347656 9.953125 -15.078125 C 9.035156 -16.035156 7.976562 -16.515625 6.78125 -16.515625 C 5.96875 -16.515625 5.3125 -16.289062 4.8125 -15.84375 C 4.320312 -15.40625 4.078125 -14.828125 4.078125 -14.109375 C 4.078125 -13.398438 4.367188 -12.734375 4.953125 -12.109375 C 5.546875 -11.492188 6.53125 -10.8125 7.90625 -10.0625 C 9.625 -9.125 10.863281 -8.207031 11.625 -7.3125 C 12.382812 -6.425781 12.765625 -5.445312 12.765625 -4.375 Z M 12.765625 -4.375 "/></g></g></g><g fill="#000000" fill-opacity="1"><g transform="translate(166.369344, 342.374978)"><g><path d="M 0.421875 0 L 0.421875 -0.421875 C 0.816406 -0.609375 1.21875 -0.726562 1.625 -0.78125 L 1.625 -9.453125 C 1.425781 -9.484375 1.222656 -9.53125 1.015625 -9.59375 C 0.816406 -9.664062 0.617188 -9.738281 0.421875 -9.8125 L 0.421875 -10.234375 L 1.96875 -10.234375 C 2.15625 -10.234375 2.332031 -10.238281 2.5 -10.25 C 2.675781 -10.257812 2.851562 -10.269531 3.03125 -10.28125 C 3.21875 -10.289062 3.421875 -10.300781 3.640625 -10.3125 C 3.859375 -10.320312 4.101562 -10.328125 4.375 -10.328125 C 4.757812 -10.328125 5.15625 -10.296875 5.5625 -10.234375 C 5.96875 -10.171875 6.332031 -10.050781 6.65625 -9.875 C 6.988281 -9.695312 7.253906 -9.445312 7.453125 -9.125 C 7.660156 -8.8125 7.765625 -8.398438 7.765625 -7.890625 C 7.765625 -7.640625 7.722656 -7.382812 7.640625 -7.125 C 7.566406 -6.875 7.445312 -6.640625 7.28125 -6.421875 C 7.125 -6.203125 6.921875 -6.007812 6.671875 -5.84375 C 6.429688 -5.675781 6.148438 -5.554688 5.828125 -5.484375 L 5.828125 -5.421875 C 6.117188 -5.378906 6.40625 -5.296875 6.6875 -5.171875 C 6.976562 -5.054688 7.234375 -4.898438 7.453125 -4.703125 C 7.679688 -4.503906 7.863281 -4.257812 8 -3.96875 C 8.144531 -3.675781 8.21875 -3.320312 8.21875 -2.90625 C 8.21875 -2.382812 8.097656 -1.929688 7.859375 -1.546875 C 7.628906 -1.171875 7.328125 -0.859375 6.953125 -0.609375 C 6.578125 -0.367188 6.148438 -0.191406 5.671875 -0.078125 C 5.191406 0.0351562 4.710938 0.09375 4.234375 0.09375 C 3.890625 0.09375 3.5 0.078125 3.0625 0.046875 C 2.632812 0.015625 2.222656 0 1.828125 0 Z M 4.328125 -0.671875 C 4.679688 -0.671875 5.007812 -0.722656 5.3125 -0.828125 C 5.625 -0.941406 5.890625 -1.09375 6.109375 -1.28125 C 6.328125 -1.46875 6.5 -1.695312 6.625 -1.96875 C 6.75 -2.238281 6.8125 -2.53125 6.8125 -2.84375 C 6.8125 -3.226562 6.734375 -3.550781 6.578125 -3.8125 C 6.429688 -4.070312 6.226562 -4.273438 5.96875 -4.421875 C 5.71875 -4.578125 5.421875 -4.679688 5.078125 -4.734375 C 4.742188 -4.796875 4.394531 -4.828125 4.03125 -4.828125 L 2.9375 -4.828125 L 2.9375 -0.796875 C 3.070312 -0.753906 3.234375 -0.722656 3.421875 -0.703125 C 3.617188 -0.679688 3.921875 -0.671875 4.328125 -0.671875 Z M 3.671875 -5.59375 C 3.835938 -5.59375 4.035156 -5.597656 4.265625 -5.609375 C 4.492188 -5.617188 4.679688 -5.632812 4.828125 -5.65625 C 5.273438 -5.8125 5.640625 -6.0625 5.921875 -6.40625 C 6.210938 -6.757812 6.359375 -7.171875 6.359375 -7.640625 C 6.359375 -8.273438 6.164062 -8.753906 5.78125 -9.078125 C 5.394531 -9.398438 4.878906 -9.5625 4.234375 -9.5625 C 3.929688 -9.5625 3.671875 -9.554688 3.453125 -9.546875 C 3.242188 -9.535156 3.070312 -9.519531 2.9375 -9.5 L 2.9375 -5.59375 Z M 3.671875 -5.59375 "/></g></g></g><g fill="#000000" fill-opacity="1"><g transform="translate(176.409296, 342.374978)"><g><path d="M 3.25 0 L 0 0 L 0 -0.421875 C 0.351562 -0.578125 0.703125 -0.695312 1.046875 -0.78125 L 4.75 -10.40625 L 5.171875 -10.40625 L 8.875 -0.78125 C 9.070312 -0.738281 9.265625 -0.691406 9.453125 -0.640625 C 9.640625 -0.597656 9.816406 -0.523438 9.984375 -0.421875 L 9.984375 0 L 6.25 0 L 6.25 -0.421875 C 6.4375 -0.503906 6.632812 -0.570312 6.84375 -0.625 C 7.050781 -0.6875 7.25 -0.738281 7.4375 -0.78125 L 6.453125 -3.453125 L 2.953125 -3.453125 L 1.984375 -0.78125 C 2.398438 -0.71875 2.820312 -0.597656 3.25 -0.421875 Z M 3.25 -4.21875 L 6.203125 -4.21875 L 5.046875 -7.3125 L 4.765625 -8.5625 L 4.734375 -8.5625 L 4.375 -7.28125 Z M 3.25 -4.21875 "/></g></g></g><g fill="#000000" fill-opacity="1"><g transform="translate(187.44295, 342.374978)"><g><path d="M 7.125 -10.234375 L 10.28125 -10.234375 L 10.28125 -9.8125 C 9.875 -9.539062 9.472656 -9.347656 9.078125 -9.234375 L 9.078125 0.171875 L 8.25 0.171875 L 2.9375 -7.890625 L 2.375 -9.03125 L 2.328125 -9.03125 L 2.453125 -7.890625 L 2.453125 -0.9375 C 2.859375 -0.832031 3.234375 -0.660156 3.578125 -0.421875 L 3.578125 0 L 0.421875 0 L 0.421875 -0.421875 C 0.597656 -0.523438 0.785156 -0.617188 0.984375 -0.703125 C 1.179688 -0.785156 1.394531 -0.863281 1.625 -0.9375 L 1.625 -9.3125 C 1.425781 -9.394531 1.234375 -9.476562 1.046875 -9.5625 C 0.859375 -9.65625 0.679688 -9.742188 0.515625 -9.828125 L 0.515625 -10.234375 L 2.984375 -10.234375 L 7.59375 -3.296875 L 8.265625 -2.03125 L 8.328125 -2.03125 L 8.25 -3.296875 L 8.25 -9.234375 C 8.039062 -9.316406 7.84375 -9.40625 7.65625 -9.5 C 7.46875 -9.601562 7.289062 -9.707031 7.125 -9.8125 Z M 7.125 -10.234375 "/></g></g></g><g fill="#000000" fill-opacity="1"><g transform="translate(199.192648, 342.374978)"><g><path d="M 5.59375 -10.234375 L 8.8125 -10.234375 L 8.8125 -9.8125 C 8.625 -9.726562 8.4375 -9.65625 8.25 -9.59375 C 8.0625 -9.53125 7.878906 -9.484375 7.703125 -9.453125 L 4.765625 -5.5625 C 5.015625 -5.238281 5.296875 -4.875 5.609375 -4.46875 C 5.921875 -4.070312 6.25 -3.660156 6.59375 -3.234375 C 6.945312 -2.816406 7.304688 -2.390625 7.671875 -1.953125 C 8.035156 -1.515625 8.394531 -1.101562 8.75 -0.71875 L 9.453125 -0.359375 L 9.453125 0 L 7.625 0 L 7.125 -0.34375 C 6.550781 -1.019531 5.976562 -1.75 5.40625 -2.53125 C 4.832031 -3.3125 4.28125 -4.101562 3.75 -4.90625 L 3.03125 -4.90625 L 3.03125 -0.78125 C 3.476562 -0.695312 3.84375 -0.578125 4.125 -0.421875 L 4.125 0 L 0.421875 0 L 0.421875 -0.421875 C 0.816406 -0.578125 1.21875 -0.695312 1.625 -0.78125 L 1.625 -9.453125 C 1.1875 -9.503906 0.785156 -9.625 0.421875 -9.8125 L 0.421875 -10.234375 L 4.125 -10.234375 L 4.125 -9.8125 C 3.96875 -9.75 3.796875 -9.679688 3.609375 -9.609375 C 3.421875 -9.546875 3.226562 -9.492188 3.03125 -9.453125 L 3.03125 -5.390625 L 3.90625 -5.59375 L 6.640625 -9.453125 C 6.441406 -9.492188 6.253906 -9.546875 6.078125 -9.609375 C 5.910156 -9.671875 5.75 -9.738281 5.59375 -9.8125 Z M 5.59375 -10.234375 "/></g></g></g></svg>